<svg width="360" height="72" viewBox="0 0 360 72" fill="none" xmlns="http://www.w3.org/2000/svg">
<rect width="360" height="71.8006" fill="white"/>
<rect width="71.8006" height="71.8006" rx="8" fill="#2C2F32"/>
<path fill-rule="evenodd" clip-rule="evenodd" d="M19.2856 20.8202C20.0975 23.0526 21.2368 25.6883 22.8355 28.6837C17.9607 33.411 15.4497 37.9472 14.2761 41.9086C13.7459 39.9963 13.4626 37.9814 13.4626 35.9003C13.4626 30.0947 15.6675 24.8041 19.2856 20.8202ZM17.7844 49.1416C19.6403 46.1501 22.7674 42.1455 28.0363 37.143C29.5075 39.2643 31.1798 41.4988 33.0806 43.8372C28.7394 48.07 25.8781 51.7681 24.0474 54.9553C21.6063 53.4337 19.479 51.4561 17.7844 49.1416ZM35.4779 58.3341C35.6184 58.3367 35.7592 58.338 35.9003 58.338C39.3471 58.338 42.6124 57.5607 45.5305 56.172C44.1541 55.2039 42.6777 54.0129 41.0987 52.5573L35.4779 58.3341ZM48.4448 45.0073L53.2869 50.0843C56.4442 46.2187 58.338 41.2806 58.338 35.9003C58.338 35.5529 58.3301 35.2073 58.3144 34.8637L48.4448 45.0073ZM56.3902 26.7426C55.1801 24.0393 53.4508 21.6191 51.329 19.609C47.344 21.7911 42.2648 25.148 35.9003 30.2908C35.6166 30.5201 35.3368 30.7478 35.0608 30.974L40.805 36.9968C46.7728 32.1593 52.026 28.9165 56.3902 26.7426ZM28.4365 23.9803C34.6356 19.4178 40.142 16.7699 44.8556 15.321C42.1124 14.1256 39.0838 13.4626 35.9003 13.4626C30.9015 13.4626 26.2845 15.0973 22.5547 17.8612L28.4095 24.0001L28.4365 23.9803Z" fill="white"/>
<path d="M105.457 44.8753V26.0277H109.819V44.8753H105.457Z" fill="black"/>
<path d="M132.547 30.1742C133.696 30.1742 134.71 30.4075 135.59 30.8742C136.487 31.323 137.187 32.023 137.69 32.9744C138.21 33.9078 138.471 35.1104 138.471 36.5824V44.8753H134.27V37.2286C134.27 36.0618 134.028 35.2002 133.543 34.6437C133.059 34.0873 132.377 33.8091 131.497 33.8091C130.887 33.8091 130.339 33.9527 129.855 34.2399C129.37 34.5091 128.993 34.922 128.724 35.4784C128.455 36.0349 128.32 36.7439 128.32 37.6055V44.8753H124.12V37.2286C124.12 36.0618 123.877 35.2002 123.393 34.6437C122.926 34.0873 122.253 33.8091 121.373 33.8091C120.763 33.8091 120.215 33.9527 119.731 34.2399C119.246 34.5091 118.869 34.922 118.6 35.4784C118.331 36.0349 118.196 36.7439 118.196 37.6055V44.8753H113.996V30.3896H118.008V34.3476L117.254 33.1898C117.756 32.2025 118.465 31.4576 119.381 30.955C120.314 30.4344 121.373 30.1742 122.558 30.1742C123.886 30.1742 125.044 30.5152 126.031 31.1973C127.036 31.8615 127.701 32.8846 128.024 34.2668L126.543 33.8629C127.028 32.7321 127.799 31.8345 128.858 31.1704C129.935 30.5062 131.165 30.1742 132.547 30.1742Z" fill="black"/>
<path d="M151.121 44.8753V42.0482L150.852 41.4289V36.367C150.852 35.4695 150.573 34.7694 150.017 34.2668C149.479 33.7642 148.644 33.5129 147.513 33.5129C146.741 33.5129 145.978 33.6385 145.224 33.8898C144.488 34.1232 143.86 34.4463 143.34 34.8591L141.832 31.9243C142.622 31.3678 143.573 30.937 144.686 30.6319C145.799 30.3267 146.93 30.1742 148.078 30.1742C150.286 30.1742 152.001 30.6947 153.221 31.7358C154.442 32.7769 155.052 34.4014 155.052 36.6093V44.8753H151.121ZM146.705 45.0907C145.574 45.0907 144.605 44.9022 143.797 44.5253C142.99 44.1304 142.37 43.6009 141.939 42.9367C141.509 42.2726 141.293 41.5276 141.293 40.7019C141.293 39.8403 141.5 39.0864 141.913 38.4402C142.343 37.794 143.016 37.2914 143.932 36.9324C144.847 36.5554 146.041 36.367 147.513 36.367H151.363V38.8172H147.971C146.983 38.8172 146.301 38.9787 145.924 39.3018C145.565 39.6249 145.386 40.0288 145.386 40.5134C145.386 41.0519 145.592 41.4827 146.005 41.8059C146.436 42.111 147.019 42.2636 147.755 42.2636C148.455 42.2636 149.084 42.102 149.64 41.7789C150.197 41.4379 150.6 40.9442 150.852 40.298L151.498 42.2367C151.193 43.1701 150.636 43.8791 149.829 44.3637C149.021 44.8484 147.98 45.0907 146.705 45.0907Z" fill="black"/>
<path d="M165.771 50.3142C164.407 50.3142 163.087 50.1437 161.813 49.8026C160.556 49.4795 159.506 48.9859 158.663 48.3218L160.332 45.3061C160.942 45.8087 161.714 46.2036 162.647 46.4908C163.599 46.796 164.532 46.9486 165.448 46.9486C166.938 46.9486 168.015 46.6165 168.679 45.9523C169.361 45.2882 169.702 44.3009 169.702 42.9906V40.8096L169.971 37.1747L169.917 33.5129V30.3896H173.902V42.4521C173.902 45.1446 173.202 47.1281 171.802 48.4025C170.402 49.677 168.392 50.3142 165.771 50.3142ZM165.125 44.1753C163.778 44.1753 162.558 43.8881 161.463 43.3137C160.386 42.7213 159.515 41.9046 158.851 40.8635C158.205 39.8044 157.882 38.5748 157.882 37.1747C157.882 35.7567 158.205 34.5271 158.851 33.486C159.515 32.4269 160.386 31.6102 161.463 31.0358C162.558 30.4614 163.778 30.1742 165.125 30.1742C166.345 30.1742 167.422 30.4255 168.356 30.9281C169.289 31.4127 170.016 32.1756 170.537 33.2167C171.057 34.2399 171.317 35.5592 171.317 37.1747C171.317 38.7723 171.057 40.0916 170.537 41.1327C170.016 42.1559 169.289 42.9188 168.356 43.4214C167.422 43.924 166.345 44.1753 165.125 44.1753ZM165.959 40.7288C166.695 40.7288 167.35 40.5852 167.925 40.298C168.499 39.9929 168.948 39.5711 169.271 39.0326C169.594 38.4941 169.756 37.8748 169.756 37.1747C169.756 36.4567 169.594 35.8374 169.271 35.3169C168.948 34.7784 168.499 34.3655 167.925 34.0783C167.35 33.7732 166.695 33.6206 165.959 33.6206C165.223 33.6206 164.568 33.7732 163.994 34.0783C163.419 34.3655 162.962 34.7784 162.621 35.3169C162.297 35.8374 162.136 36.4567 162.136 37.1747C162.136 37.8748 162.297 38.4941 162.621 39.0326C162.962 39.5711 163.419 39.9929 163.994 40.298C164.568 40.5852 165.223 40.7288 165.959 40.7288Z" fill="black"/>
<path d="M185.001 45.0907C183.349 45.0907 181.895 44.7676 180.639 44.1214C179.4 43.4752 178.44 42.5957 177.758 41.4827C177.076 40.3519 176.735 39.0685 176.735 37.6324C176.735 36.1785 177.067 34.895 177.731 33.7821C178.413 32.6513 179.337 31.7717 180.504 31.1435C181.671 30.4973 182.99 30.1742 184.462 30.1742C185.88 30.1742 187.155 30.4793 188.286 31.0896C189.434 31.682 190.341 32.5436 191.005 33.6744C191.669 34.7873 192.001 36.1246 192.001 37.6863C192.001 37.8478 191.992 38.0363 191.974 38.2517C191.956 38.4492 191.938 38.6377 191.92 38.8172H180.154V36.367H189.713L188.097 37.0939C188.097 36.34 187.944 35.6849 187.639 35.1284C187.334 34.5719 186.912 34.1411 186.374 33.836C185.835 33.5129 185.207 33.3513 184.489 33.3513C183.771 33.3513 183.134 33.5129 182.577 33.836C182.039 34.1411 181.617 34.5809 181.312 35.1553C181.007 35.7118 180.854 36.3759 180.854 37.1478V37.794C180.854 38.5838 181.025 39.2839 181.366 39.8942C181.725 40.4865 182.218 40.9442 182.847 41.2673C183.493 41.5725 184.247 41.7251 185.108 41.7251C185.88 41.7251 186.553 41.6084 187.128 41.375C187.72 41.1417 188.259 40.7917 188.743 40.325L190.978 42.7482C190.314 43.5021 189.479 44.0855 188.474 44.4984C187.469 44.8933 186.311 45.0907 185.001 45.0907Z" fill="black"/>
<path d="M206.623 44.8753V29.5818H200.592V26.0277H217.016V29.5818H210.985V44.8753H206.623Z" fill="black"/>
<path d="M227.872 30.1742C229.02 30.1742 230.044 30.4075 230.941 30.8742C231.857 31.323 232.575 32.023 233.095 32.9744C233.616 33.9078 233.876 35.1104 233.876 36.5824V44.8753H229.676V37.2286C229.676 36.0618 229.415 35.2002 228.895 34.6437C228.392 34.0873 227.674 33.8091 226.741 33.8091C226.077 33.8091 225.475 33.9527 224.937 34.2399C224.416 34.5091 224.003 34.9309 223.698 35.5054C223.411 36.0798 223.267 36.8157 223.267 37.7132V44.8753H219.067V24.8968H223.267V34.4014L222.325 33.1898C222.846 32.2205 223.591 31.4755 224.56 30.955C225.529 30.4344 226.633 30.1742 227.872 30.1742Z" fill="black"/>
<path d="M237.683 44.8753V30.3896H241.695V34.4822L241.13 33.2975C241.561 32.2743 242.252 31.5025 243.203 30.9819C244.154 30.4434 245.312 30.1742 246.676 30.1742V34.0514C246.497 34.0334 246.335 34.0245 246.192 34.0245C246.048 34.0065 245.896 33.9975 245.734 33.9975C244.585 33.9975 243.652 34.3296 242.934 34.9938C242.234 35.64 241.884 36.6542 241.884 38.0363V44.8753H237.683Z" fill="black"/>
<path d="M256.258 45.0907C254.606 45.0907 253.152 44.7676 251.896 44.1214C250.657 43.4752 249.697 42.5957 249.015 41.4827C248.333 40.3519 247.992 39.0685 247.992 37.6324C247.992 36.1785 248.324 34.895 248.988 33.7821C249.67 32.6513 250.595 31.7717 251.761 31.1435C252.928 30.4973 254.247 30.1742 255.719 30.1742C257.137 30.1742 258.412 30.4793 259.543 31.0896C260.691 31.682 261.598 32.5436 262.262 33.6744C262.926 34.7873 263.258 36.1246 263.258 37.6863C263.258 37.8478 263.249 38.0363 263.231 38.2517C263.213 38.4492 263.196 38.6377 263.178 38.8172H251.411V36.367H260.97L259.354 37.0939C259.354 36.34 259.202 35.6849 258.896 35.1284C258.591 34.5719 258.169 34.1411 257.631 33.836C257.092 33.5129 256.464 33.3513 255.746 33.3513C255.028 33.3513 254.391 33.5129 253.835 33.836C253.296 34.1411 252.874 34.5809 252.569 35.1553C252.264 35.7118 252.111 36.3759 252.111 37.1478V37.794C252.111 38.5838 252.282 39.2839 252.623 39.8942C252.982 40.4865 253.476 40.9442 254.104 41.2673C254.75 41.5725 255.504 41.7251 256.365 41.7251C257.137 41.7251 257.81 41.6084 258.385 41.375C258.977 41.1417 259.516 40.7917 260 40.325L262.235 42.7482C261.571 43.5021 260.736 44.0855 259.731 44.4984C258.726 44.8933 257.568 45.0907 256.258 45.0907Z" fill="black"/>
<path d="M274.546 44.8753V42.0482L274.276 41.4289V36.367C274.276 35.4695 273.998 34.7694 273.442 34.2668C272.903 33.7642 272.069 33.5129 270.938 33.5129C270.166 33.5129 269.403 33.6385 268.649 33.8898C267.913 34.1232 267.285 34.4463 266.764 34.8591L265.256 31.9243C266.046 31.3678 266.998 30.937 268.111 30.6319C269.223 30.3267 270.354 30.1742 271.503 30.1742C273.711 30.1742 275.425 30.6947 276.646 31.7358C277.866 32.7769 278.477 34.4014 278.477 36.6093V44.8753H274.546ZM270.13 45.0907C268.999 45.0907 268.03 44.9022 267.222 44.5253C266.414 44.1304 265.795 43.6009 265.364 42.9367C264.933 42.2726 264.718 41.5276 264.718 40.7019C264.718 39.8403 264.924 39.0864 265.337 38.4402C265.768 37.794 266.441 37.2914 267.357 36.9324C268.272 36.5554 269.466 36.367 270.938 36.367H274.788V38.8172H271.395C270.408 38.8172 269.726 38.9787 269.349 39.3018C268.99 39.6249 268.811 40.0288 268.811 40.5134C268.811 41.0519 269.017 41.4827 269.43 41.8059C269.861 42.111 270.444 42.2636 271.18 42.2636C271.88 42.2636 272.508 42.102 273.065 41.7789C273.621 41.4379 274.025 40.9442 274.276 40.298L274.923 42.2367C274.617 43.1701 274.061 43.8791 273.253 44.3637C272.446 44.8484 271.404 45.0907 270.13 45.0907Z" fill="black"/>
<path d="M288.603 45.0907C287.239 45.0907 286.009 44.7856 284.914 44.1753C283.819 43.547 282.949 42.6764 282.303 41.5635C281.674 40.4506 281.36 39.1403 281.36 37.6324C281.36 36.1067 281.674 34.7873 282.303 33.6744C282.949 32.5615 283.819 31.6999 284.914 31.0896C286.009 30.4793 287.239 30.1742 288.603 30.1742C289.824 30.1742 290.892 30.4434 291.807 30.9819C292.723 31.5204 293.432 32.3372 293.934 33.4321C294.437 34.5271 294.688 35.9272 294.688 37.6324C294.688 39.3198 294.446 40.7199 293.961 41.8328C293.477 42.9277 292.777 43.7445 291.861 44.283C290.964 44.8215 289.878 45.0907 288.603 45.0907ZM289.33 41.6443C290.012 41.6443 290.632 41.4827 291.188 41.1596C291.744 40.8365 292.184 40.3788 292.507 39.7865C292.848 39.1762 293.019 38.4581 293.019 37.6324C293.019 36.7888 292.848 36.0708 292.507 35.4784C292.184 34.8861 291.744 34.4283 291.188 34.1052C290.632 33.7821 290.012 33.6206 289.33 33.6206C288.63 33.6206 288.002 33.7821 287.445 34.1052C286.889 34.4283 286.44 34.8861 286.099 35.4784C285.776 36.0708 285.614 36.7888 285.614 37.6324C285.614 38.4581 285.776 39.1762 286.099 39.7865C286.44 40.3788 286.889 40.8365 287.445 41.1596C288.002 41.4827 288.63 41.6443 289.33 41.6443ZM293.127 44.8753V41.9136L293.207 37.6055L292.938 33.3244V24.8968H297.138V44.8753H293.127Z" fill="black"/>
<path d="M308.215 45.0907C306.564 45.0907 305.11 44.7676 303.853 44.1214C302.615 43.4752 301.654 42.5957 300.972 41.4827C300.29 40.3519 299.949 39.0685 299.949 37.6324C299.949 36.1785 300.281 34.895 300.945 33.7821C301.627 32.6513 302.552 31.7717 303.719 31.1435C304.885 30.4973 306.205 30.1742 307.677 30.1742C309.095 30.1742 310.369 30.4793 311.5 31.0896C312.649 31.682 313.555 32.5436 314.219 33.6744C314.883 34.7873 315.216 36.1246 315.216 37.6863C315.216 37.8478 315.207 38.0363 315.189 38.2517C315.171 38.4492 315.153 38.6377 315.135 38.8172H303.368V36.367H312.927L311.311 37.0939C311.311 36.34 311.159 35.6849 310.854 35.1284C310.549 34.5719 310.127 34.1411 309.588 33.836C309.05 33.5129 308.421 33.3513 307.703 33.3513C306.985 33.3513 306.348 33.5129 305.792 33.836C305.253 34.1411 304.831 34.5809 304.526 35.1553C304.221 35.7118 304.069 36.3759 304.069 37.1478V37.794C304.069 38.5838 304.239 39.2839 304.58 39.8942C304.939 40.4865 305.433 40.9442 306.061 41.2673C306.707 41.5725 307.461 41.7251 308.323 41.7251C309.095 41.7251 309.768 41.6084 310.342 41.375C310.934 41.1417 311.473 40.7917 311.958 40.325L314.192 42.7482C313.528 43.5021 312.694 44.0855 311.688 44.4984C310.683 44.8933 309.525 45.0907 308.215 45.0907Z" fill="black"/>
<path d="M318.012 44.8753V30.3896H322.024V34.4822L321.458 33.2975C321.889 32.2743 322.58 31.5025 323.532 30.9819C324.483 30.4434 325.641 30.1742 327.005 30.1742V34.0514C326.826 34.0334 326.664 34.0245 326.52 34.0245C326.377 34.0065 326.224 33.9975 326.063 33.9975C324.914 33.9975 323.98 34.3296 323.262 34.9938C322.562 35.64 322.212 36.6542 322.212 38.0363V44.8753H318.012Z" fill="black"/>
<path d="M285.516 56L281.892 47.6H283.992L287.16 55.04H285.924L289.14 47.6H291.072L287.436 56H285.516ZM293.561 50.984H297.605V52.496H293.561V50.984ZM293.705 54.44H298.277V56H291.773V47.6H298.121V49.16H293.705V54.44ZM299.824 56V47.6H303.46C304.212 47.6 304.86 47.724 305.404 47.972C305.948 48.212 306.368 48.56 306.664 49.016C306.96 49.472 307.108 50.016 307.108 50.648C307.108 51.272 306.96 51.812 306.664 52.268C306.368 52.716 305.948 53.06 305.404 53.3C304.86 53.54 304.212 53.66 303.46 53.66H300.904L301.768 52.808V56H299.824ZM305.164 56L303.064 52.952H305.14L307.264 56H305.164ZM301.768 53.024L300.904 52.112H303.352C303.952 52.112 304.4 51.984 304.696 51.728C304.992 51.464 305.14 51.104 305.14 50.648C305.14 50.184 304.992 49.824 304.696 49.568C304.4 49.312 303.952 49.184 303.352 49.184H300.904L301.768 48.26V53.024ZM312.815 56V48.32L313.655 49.16H311.135V47.6H314.759V56H312.815ZM317.322 56.096C317.002 56.096 316.726 55.988 316.494 55.772C316.27 55.548 316.158 55.264 316.158 54.92C316.158 54.576 316.27 54.3 316.494 54.092C316.726 53.876 317.002 53.768 317.322 53.768C317.65 53.768 317.926 53.876 318.15 54.092C318.374 54.3 318.486 54.576 318.486 54.92C318.486 55.264 318.374 55.548 318.15 55.772C317.926 55.988 317.65 56.096 317.322 56.096ZM322.806 56.144C322.118 56.144 321.502 55.976 320.958 55.64C320.414 55.296 319.986 54.8 319.674 54.152C319.362 53.504 319.206 52.72 319.206 51.8C319.206 50.88 319.362 50.096 319.674 49.448C319.986 48.8 320.414 48.308 320.958 47.972C321.502 47.628 322.118 47.456 322.806 47.456C323.502 47.456 324.118 47.628 324.654 47.972C325.198 48.308 325.626 48.8 325.938 49.448C326.25 50.096 326.406 50.88 326.406 51.8C326.406 52.72 326.25 53.504 325.938 54.152C325.626 54.8 325.198 55.296 324.654 55.64C324.118 55.976 323.502 56.144 322.806 56.144ZM322.806 54.5C323.134 54.5 323.418 54.408 323.658 54.224C323.906 54.04 324.098 53.748 324.234 53.348C324.378 52.948 324.45 52.432 324.45 51.8C324.45 51.168 324.378 50.652 324.234 50.252C324.098 49.852 323.906 49.56 323.658 49.376C323.418 49.192 323.134 49.1 322.806 49.1C322.486 49.1 322.202 49.192 321.954 49.376C321.714 49.56 321.522 49.852 321.378 50.252C321.242 50.652 321.174 51.168 321.174 51.8C321.174 52.432 321.242 52.948 321.378 53.348C321.522 53.748 321.714 54.04 321.954 54.224C322.202 54.408 322.486 54.5 322.806 54.5Z" fill="black"/>
</svg>
